<svg width="1003" height="444" fill="none" xmlns="http://www.w3.org/2000/svg"><g opacity=".1"><path d="M510 2.5C536.333 79.167 674.7 238 1017.5 260" stroke="url(#paint0_linear_1_361)"/><path d="M163.77 34.5c5.594 80.87 98.137 270.103 423.562 380.077" stroke="url(#paint1_linear_1_361)"/><path d="M626 1c26.333 76.667 164.7 235.5 507.5 257.5" stroke="url(#paint2_linear_1_361)"/><path d="M276.206 63.074c5.593 80.87 98.136 270.103 423.562 380.077" stroke="url(#paint3_linear_1_361)"/><path d="M420 46c31.667 95.167 176.5 278.5 502.5 250.5" stroke="url(#paint4_linear_1_361)"/><path d="M65.579 53.224c5.956 100.12 98.404 314.692 420.543 372.021" stroke="url(#paint5_linear_1_361)"/></g><defs><linearGradient id="paint0_linear_1_361" x1="763.75" y1="2.5" x2="763.75" y2="260" gradientUnits="userSpaceOnUse"><stop offset=".365" stop-color="#215EE9"/><stop offset="1" stop-color="#215EE9" stop-opacity="0"/></linearGradient><linearGradient id="paint1_linear_1_361" x1="408.874" y1="100.175" x2="342.228" y2="348.901" gradientUnits="userSpaceOnUse"><stop offset=".365" stop-color="#215EE9"/><stop offset="1" stop-color="#215EE9" stop-opacity="0"/></linearGradient><linearGradient id="paint2_linear_1_361" x1="879.75" y1="1" x2="879.75" y2="258.5" gradientUnits="userSpaceOnUse"><stop offset=".365" stop-color="#215EE9"/><stop offset="1" stop-color="#215EE9" stop-opacity="0"/></linearGradient><linearGradient id="paint3_linear_1_361" x1="521.31" y1="128.749" x2="454.664" y2="377.475" gradientUnits="userSpaceOnUse"><stop offset=".365" stop-color="#215EE9"/><stop offset="1" stop-color="#215EE9" stop-opacity="0"/></linearGradient><linearGradient id="paint4_linear_1_361" x1="671.25" y1="46" x2="671.25" y2="299.376" gradientUnits="userSpaceOnUse"><stop offset=".365" stop-color="#215EE9"/><stop offset="1" stop-color="#215EE9" stop-opacity="0"/></linearGradient><linearGradient id="paint5_linear_1_361" x1="308.267" y1="118.252" x2="242.689" y2="362.995" gradientUnits="userSpaceOnUse"><stop offset=".365" stop-color="#215EE9"/><stop offset="1" stop-color="#215EE9" stop-opacity="0"/></linearGradient></defs></svg>