<svg width="22" height="22" fill="none" xmlns="http://www.w3.org/2000/svg"><path fill-rule="evenodd" clip-rule="evenodd" d="M14.667 16.5h4.203a1.296 1.296 0 00.917-2.213l-.917-.917a1.833 1.833 0 01-.537-1.296V9.14a7.306 7.306 0 10-14.613.022l.01 2.89c0 .5-.202.977-.56 1.324l-.944.911A1.287 1.287 0 003.12 16.5h4.213a3.667 3.667 0 107.334 0zm3.231-2.157l.782.782H3.338l.787-.76a3.208 3.208 0 00.98-2.317l-.01-2.89a5.931 5.931 0 1111.863-.018v2.934c0 .85.338 1.667.94 2.269zM13.292 16.5H8.708a2.292 2.292 0 104.584 0z" fill="#225FE9"/></svg>