<svg width="26" height="33" viewBox="0 0 26 33" fill="none" xmlns="http://www.w3.org/2000/svg">
<path d="M21.0077 9.92865C21.0752 9.2091 21.1 8.2299 21.1 7.95C21.1 3.71055 17.7691 0.75 13 0.75C8.23089 0.75 4.89999 3.71055 4.89999 7.95C4.89999 8.2299 4.92474 9.2091 4.99224 9.92865C2.18964 12.2416 0.399994 15.7404 0.399994 19.65C0.399994 26.5975 6.05244 32.25 13 32.25C19.9475 32.25 25.6 26.5975 25.6 19.65C25.6 15.7404 23.8103 12.2416 21.0077 9.92865ZM6.69999 7.95C6.69999 4.21995 9.86394 2.55 13 2.55C16.136 2.55 19.3 4.21995 19.3 7.95C19.3 8.15565 19.2923 8.4387 19.2802 8.7339C17.4302 7.66515 15.286 7.05 13 7.05C10.714 7.05 8.56974 7.66515 6.71979 8.7339C6.70764 8.4387 6.69999 8.15565 6.69999 7.95ZM13 30.45C7.04514 30.45 2.19999 25.6048 2.19999 19.65C2.19999 13.6951 7.04514 8.85 13 8.85C18.9548 8.85 23.8 13.6951 23.8 19.65C23.8 25.6048 18.9548 30.45 13 30.45Z" fill="#231F20"/>
<path d="M10.9723 19.3651C11.204 19.2702 11.3921 19.1374 11.5366 18.9691C11.7706 18.6973 11.8889 18.345 11.8889 17.9098C11.8889 17.3001 11.6914 16.8321 11.2949 16.5117C10.8989 16.189 10.3387 16.0288 9.616 16.0288C8.70115 16.0288 8.0635 16.3267 7.699 16.9864C7.48885 17.3563 7.38219 17.85 7.38219 18.3H8.26555C8.2813 17.85 8.3524 17.6196 8.4775 17.4018C8.7052 17.0058 9.11695 16.824 9.71095 16.824C10.0435 16.824 10.3351 16.927 10.5862 17.1196C10.8377 17.3113 10.9624 17.5867 10.9624 17.9391C10.9624 18.4147 10.7743 18.7473 10.3981 18.9313C10.1839 19.038 9.90894 19.0906 9.57639 19.0906C9.50304 19.0906 9.34104 19.0911 9.27939 19.087C9.21594 19.0834 9.4 19.078 8.95 19.0681V19.8565C9.4 19.8525 9.17005 19.8502 9.2317 19.8484C9.29334 19.8462 9.4 19.8444 9.45895 19.8444C9.98995 19.8444 10.4296 19.9434 10.7288 20.1373C11.0276 20.3313 11.1883 20.6737 11.1883 21.1629C11.1883 21.5589 11.0519 21.882 10.7684 22.1331C10.4854 22.3828 10.1119 22.5093 9.64209 22.5093C9.03819 22.5093 8.62195 22.3468 8.39065 21.9742C8.2597 21.7672 8.17375 21.45 8.1346 21H7.20399C7.20399 21.45 7.39434 22.1943 7.77235 22.656C8.1508 23.1154 8.75875 23.335 9.59665 23.335C10.4143 23.335 11.0465 23.1145 11.4938 22.6884C11.9371 22.2627 12.1612 21.7092 12.1612 21.0315C12.1612 20.6098 12.0563 20.2503 11.8462 19.9587C11.636 19.6662 11.3444 19.4682 10.9723 19.3651Z" fill="#231F20"/>
<path d="M15.3512 21.3614C15.5353 21.2016 15.7891 21.0149 16.1113 20.8367L16.7908 20.4524C17.3888 20.1198 17.8028 19.8304 18.0328 19.5969C18.4328 19.1946 18.6326 18.7077 18.6326 18.1398C18.6326 17.6012 18.4445 17.1129 18.0701 16.6728C17.6957 16.2331 17.1022 16.0149 16.2899 16.0149C15.3134 16.0149 14.6321 16.4559 14.246 17.1431C14.0278 17.5314 13.913 17.85 13.9054 18.75H14.8103C14.8243 18.3 14.894 17.8675 15.0187 17.6196C15.2522 17.1565 15.6761 16.8757 16.2859 16.8757C16.6976 16.8757 17.0284 16.972 17.2759 17.2155C17.5234 17.4571 17.648 17.7735 17.648 18.1875C17.648 18.5416 17.5112 18.8486 17.2403 19.124C17.0698 19.2981 16.771 19.5069 16.3453 19.7544L15.3949 20.3011C14.7572 20.6719 14.3293 21.144 14.1097 21.5958C13.8896 22.0472 13.7645 22.35 13.7308 23.25H18.4V22.35H14.7253C14.8121 21.9 15.02 21.6503 15.3512 21.3614Z" fill="#231F20"/>
</svg>
