<svg width="224" height="71" viewBox="0 0 224 71" fill="none" xmlns="http://www.w3.org/2000/svg">
<g clip-path="url(#clip0_2_99)">
<path d="M46.0415 23.5231L45.9832 23.3079C45.1218 20.1427 43.0272 17.4449 40.159 15.8063C37.2908 14.1677 33.8831 13.7221 30.6834 14.5672L22.0651 16.8545C18.8674 17.7072 16.142 19.7805 14.4866 22.6197C12.8312 25.4588 12.3811 28.832 13.2349 31.9993L16.4087 43.7168C17.1636 46.523 18.778 49.029 21.0301 50.8901L22.3406 51.9771L22.6904 53.2684C23.1816 55.0775 24.3784 56.6194 26.0178 57.5553C27.6572 58.4912 29.6049 58.7444 31.4328 58.2592L46.9417 54.1432C48.7703 53.6579 50.3293 52.4734 51.2757 50.8503C52.222 49.2271 52.4782 47.2984 51.9879 45.4883L51.6918 44.395L52.351 43.3296C53.3568 41.6938 54.0177 39.8734 54.2939 37.978C54.57 36.0826 54.4557 34.1515 53.9578 32.3011L52.9991 28.7616C52.5876 27.2494 51.6811 25.915 50.4216 24.9673C49.1621 24.0195 47.6207 23.5119 46.0386 23.5239L46.0415 23.5231ZM46.02 50.7292L30.5083 54.846C30.0556 54.9661 29.5835 54.9968 29.1189 54.9364C28.6543 54.8759 28.2062 54.7254 27.8004 54.4935C26.9807 54.0253 26.3825 53.2538 26.1374 52.349L48.5441 46.4023C48.6655 46.8504 48.6965 47.3179 48.6353 47.7779C48.5742 48.2379 48.4221 48.6815 48.1877 49.0833C47.9533 49.4852 47.6412 49.8373 47.2693 50.1197C46.8973 50.4021 46.4728 50.6092 46.02 50.7292ZM50.514 33.2151C50.8868 34.603 50.972 36.0513 50.7646 37.4728C50.5571 38.8943 50.0613 40.2595 49.3068 41.4862L48.5269 42.7482L24.4693 49.1331L23.3213 48.1813C21.6314 46.7838 20.4202 44.9026 19.8539 42.7963L18.2819 36.9928C19.4918 37.3161 20.7667 37.3168 21.977 36.9948L34.042 33.7927C34.4991 33.6714 34.8888 33.3754 35.1253 32.9697C35.3618 32.564 35.4259 32.0819 35.3033 31.6295C35.1808 31.177 34.8817 30.7913 34.4718 30.5572C34.062 30.323 33.575 30.2596 33.1179 30.3809L21.0543 33.5826C20.6015 33.703 20.1291 33.7338 19.6642 33.6734C19.1994 33.613 18.7511 33.4625 18.345 33.2305C17.9389 32.9985 17.583 32.6896 17.2975 32.3214C17.0121 31.9531 16.8028 31.5328 16.6816 31.0845C16.0717 28.8221 16.3932 26.4125 17.5757 24.3844C18.7582 22.3564 20.705 20.8753 22.9892 20.2663L31.6075 17.979C33.8931 17.3752 36.3273 17.6935 38.3762 18.864C40.425 20.0345 41.9212 21.9616 42.5365 24.2227L42.5948 24.4379C41.2189 25.2109 40.1408 26.4138 39.5292 27.8581C38.9176 29.3024 38.8072 30.9067 39.215 32.4198L40.6012 37.5375C40.7238 37.99 41.0229 38.3757 41.4327 38.6098C41.8426 38.844 42.3296 38.9074 42.7867 38.7861C43.2437 38.6648 43.6334 38.3687 43.8699 37.963C44.1065 37.5573 44.1705 37.0752 44.048 36.6228L42.6618 31.5051C42.4166 30.6 42.5447 29.6356 43.0179 28.8241C43.4911 28.0125 44.2706 27.4203 45.1849 27.1776C46.0993 26.9349 47.0735 27.0618 47.8934 27.5301C48.7132 27.9985 49.3116 28.7701 49.5567 29.6752L50.514 33.2151Z" fill="#E73539"/>
</g>
<path d="M70.664 24.984H78.216C79.944 24.984 81.2347 25.4427 82.088 26.36C82.9627 27.2773 83.4 28.664 83.4 30.52C83.4 32.0773 83.1653 33.272 82.696 34.104C82.2267 34.9147 81.4907 35.448 80.488 35.704V35.832C81.5973 36.1093 82.3867 36.6427 82.856 37.432C83.3467 38.2213 83.592 39.448 83.592 41.112C83.592 43.0533 83.176 44.5253 82.344 45.528C81.512 46.5093 80.136 47 78.216 47H70.664V24.984ZM77.032 33.976C77.5867 33.976 78.0027 33.912 78.28 33.784C78.5787 33.656 78.7813 33.4107 78.888 33.048C79.016 32.6853 79.08 32.1413 79.08 31.416C79.08 30.648 79.0267 30.0933 78.92 29.752C78.8133 29.3893 78.6213 29.1547 78.344 29.048C78.0667 28.92 77.6293 28.856 77.032 28.856H75.016V33.976H77.032ZM77.128 43.128C77.7253 43.128 78.1627 43.064 78.44 42.936C78.7173 42.808 78.9093 42.5627 79.016 42.2C79.1227 41.8373 79.176 41.2613 79.176 40.472C79.176 39.6827 79.1227 39.1067 79.016 38.744C78.9093 38.36 78.7067 38.104 78.408 37.976C78.1307 37.848 77.704 37.784 77.128 37.784H75.016V43.128H77.128ZM92.721 47.256C90.5023 47.256 88.9237 46.936 87.985 46.296C87.0463 45.6347 86.4597 44.5893 86.225 43.16C85.9903 41.7093 85.873 39.32 85.873 35.992C85.873 32.6427 85.9903 30.2533 86.225 28.824C86.4597 27.3947 87.0463 26.36 87.985 25.72C88.9237 25.0587 90.5023 24.728 92.721 24.728C94.9397 24.728 96.5183 25.0587 97.457 25.72C98.3957 26.36 98.9823 27.3947 99.217 28.824C99.4517 30.2533 99.569 32.6427 99.569 35.992C99.569 39.32 99.4517 41.7093 99.217 43.16C98.9823 44.5893 98.3957 45.6347 97.457 46.296C96.5183 46.936 94.9397 47.256 92.721 47.256ZM92.721 43.384C93.5743 43.384 94.1503 43.2667 94.449 43.032C94.7477 42.7973 94.9397 42.2213 95.025 41.304C95.1103 40.3867 95.153 38.616 95.153 35.992C95.153 33.368 95.1103 31.5973 95.025 30.68C94.9397 29.7627 94.7477 29.1867 94.449 28.952C94.1503 28.7173 93.5743 28.6 92.721 28.6C91.8677 28.6 91.2917 28.7173 90.993 28.952C90.6943 29.1867 90.5023 29.7627 90.417 30.68C90.3317 31.5973 90.289 33.368 90.289 35.992C90.289 38.616 90.3317 40.3867 90.417 41.304C90.5023 42.2213 90.6943 42.7973 90.993 43.032C91.2917 43.2667 91.8677 43.384 92.721 43.384ZM111.1 47L108.252 39.096H107.996L105.18 47H100.572L105.18 35.928L100.636 24.984H105.372L108.156 32.568H108.38L111.164 24.984H115.772L111.292 35.8L115.868 47H111.1ZM127.37 46.712C126.922 46.8613 126.335 46.9893 125.61 47.096C124.906 47.2027 124.234 47.256 123.594 47.256C121.588 47.256 120.116 46.9253 119.178 46.264C118.239 45.6027 117.61 44.504 117.29 42.968C116.991 41.432 116.842 39.1067 116.842 35.992C116.842 32.8987 117.002 30.584 117.322 29.048C117.642 27.4907 118.271 26.3813 119.21 25.72C120.17 25.0587 121.631 24.728 123.594 24.728C124.298 24.728 124.991 24.7813 125.674 24.888C126.378 24.9733 126.922 25.0907 127.306 25.24V28.824C126.068 28.6747 125.13 28.6 124.49 28.6C123.402 28.6 122.644 28.7493 122.218 29.048C121.812 29.3253 121.546 29.9333 121.418 30.872C121.311 31.8107 121.258 33.5173 121.258 35.992C121.258 38.4667 121.311 40.1733 121.418 41.112C121.546 42.0507 121.812 42.6693 122.218 42.968C122.644 43.2453 123.402 43.384 124.49 43.384C125.471 43.384 126.431 43.3093 127.37 43.16V46.712ZM138.841 47V37.944H134.329V47H129.945V24.984H134.329V33.88H138.841V24.984H143.225V47H138.841ZM156.171 47L155.307 42.488H150.379L149.515 47H145.131L149.675 24.984H156.107L160.651 47H156.171ZM152.939 29.144H152.747L151.019 38.68H154.635L152.939 29.144ZM177.482 47V30.776H177.29L174.122 47H170.058L166.954 30.776H166.698V47H162.57V24.984H169.226L172.106 40.216H172.33L175.178 24.984H181.738V47H177.482ZM185.07 24.984H192.334C193.892 24.984 195.065 25.2613 195.854 25.816C196.665 26.3707 197.209 27.1813 197.486 28.248C197.764 29.2933 197.902 30.6907 197.902 32.44C197.902 34.1253 197.774 35.5013 197.518 36.568C197.262 37.6133 196.729 38.4453 195.918 39.064C195.108 39.6613 193.902 39.96 192.302 39.96H189.486V47H185.07V24.984ZM191.214 36.088C191.94 36.088 192.452 36.0027 192.75 35.832C193.049 35.6613 193.241 35.3413 193.326 34.872C193.433 34.3813 193.486 33.5707 193.486 32.44C193.486 31.3093 193.433 30.5093 193.326 30.04C193.241 29.5707 193.049 29.2613 192.75 29.112C192.473 28.9413 191.972 28.856 191.246 28.856H189.486V36.088H191.214ZM203.654 47V39.384L198.438 24.984H202.95L205.83 34.488H206.118L208.902 24.984H213.254L208.038 39.384V47H203.654Z" fill="white"/>
<defs>
<clipPath id="clip0_2_99">
<rect width="49" height="51" fill="white" transform="translate(10 10)"/>
</clipPath>
</defs>
</svg>
