<svg width="28" height="46" viewBox="0 0 28 46" fill="none" xmlns="http://www.w3.org/2000/svg">
<path d="M27.05 15.8V14.45H25.9241C25.9241 11.8724 23.9 9.7511 21.2 9.52295V9.5C20.3 9.5 19.9621 8.9069 19.9612 8.1221L19.6794 2.7185C19.6029 1.49495 18.5999 0.5 17.3741 0.5H9.2741C8.0483 0.5 6.98945 1.49495 6.9134 2.7185L6.46205 8.1995C6.46205 8.94065 5.9 9.5 5 9.5V9.52295C2.3 9.7511 0.5 11.8724 0.5 14.45V31.55C0.5 34.1276 2.3 36.2489 5 36.477V36.5C5.9 36.5 6.46205 37.0931 6.46295 37.8779L6.85625 43.2815C6.93365 44.5046 8.0483 45.5 9.2741 45.5H17.3741C18.5999 45.5 19.6588 44.505 19.7348 43.2815L19.9621 37.8005C19.9621 37.0593 20.3 36.5 21.2 36.5V36.477C23.9 36.2489 25.7 34.1276 25.7 31.55V31.1H25.9916C26.2391 31.1 26.15 30.9807 26.15 30.7337V24.4337C26.15 24.1862 26.2391 23.9 25.9916 23.9H25.7V20.75H27.05V19.4H26.15V18.5H27.05V18.05H26.15V17.15H27.05V16.7H26.15V15.8H27.05ZM7.8116 2.7743C7.8584 2.02955 8.528 1.4 9.2741 1.4H17.3741C18.1207 1.4 18.7907 2.02955 18.8375 2.77475L18.8645 3.2H7.7855L7.8116 2.7743ZM7.72925 4.1H18.9203L19.0612 6.35H7.58975L7.72925 4.1ZM7.4732 8.2274L7.53395 7.25H19.1179L19.1741 8.15C19.1741 8.663 19.3433 9.1256 19.6219 9.5H7.04795C7.3139 9.1427 7.47365 8.7053 7.4732 8.2274ZM18.8366 43.2257C18.7903 43.9704 18.1202 44.6 17.3741 44.6H9.2741C8.52755 44.6 7.8575 43.9704 7.8107 43.2253L7.78415 42.8H18.8631L18.8366 43.2257ZM18.919 41.9H7.7279L7.58705 39.65H19.0589L18.919 41.9ZM19.175 37.7726L19.1143 38.75H7.53035L7.4741 37.85C7.4741 37.337 7.3049 36.8744 7.02635 36.5H19.6003C19.3343 36.8573 19.1746 37.2947 19.175 37.7726ZM24.8 31.55C24.8 33.7869 22.987 35.6 20.75 35.6H5.45C3.21305 35.6 1.4 33.7869 1.4 31.55V14.45C1.4 12.213 3.21305 10.4 5.45 10.4H20.75C22.987 10.4 24.8 12.213 24.8 14.45V31.55Z" fill="#231F20"/>
<path d="M7.39085 25.1078C7.79405 25.1078 8.09556 24.9913 8.29536 24.7586C8.49561 24.526 8.59551 24.2515 8.59551 23.9347C8.59551 23.6665 8.50641 23.4109 8.32731 23.1688C8.14911 22.9258 7.82331 22.8047 7.35261 22.8047C7.02321 22.8047 6.73431 22.8988 6.48681 23.086C6.23796 23.2736 6.11375 23.5567 6.11375 23.9347C6.11375 24.2659 6.22671 24.544 6.45216 24.7703C6.67806 24.9949 6.99125 25.1078 7.39085 25.1078Z" fill="#231F20"/>
<path d="M12.0938 25.1001C12.4911 25.1001 12.8084 24.9489 13.0437 24.6465C13.28 24.3446 13.3979 23.7816 13.3979 22.9577C13.3979 22.3628 13.3128 21.8737 13.1418 21.4903C12.9713 21.106 12.641 20.9138 12.1491 20.9138C11.6973 20.9138 11.3666 21.0961 11.1573 21.461C10.9481 21.8251 10.8441 22.3619 10.8441 23.0711C10.8441 23.6053 10.9107 24.0341 11.0439 24.3581C11.2491 24.8527 11.5988 25.1001 12.0938 25.1001Z" fill="#231F20"/>
<path d="M23.45 14.45C23.45 12.9591 22.2408 11.75 20.75 11.75H5.45C3.95915 11.75 2.75 12.9591 2.75 14.45V31.55C2.75 33.0408 3.95915 34.25 5.45 34.25H20.75C22.2408 34.25 23.45 33.0408 23.45 31.55V14.45ZM19.85 20.3H20.75V22.1H19.85V20.3ZM18.05 20.3H18.95V22.1H18.05V20.3ZM16.25 20.3H17.15V22.1H16.25V20.3ZM12.1037 20.3225C12.893 20.3225 13.4632 20.6015 13.8155 21.1595C14.0877 21.5906 14.2241 22.1819 14.2241 22.933C14.2241 23.6444 14.1008 24.233 13.8542 24.6988C13.496 25.3657 12.9119 25.7 12.0992 25.7C11.3675 25.7 10.8217 25.4268 10.4648 24.8814C10.1665 24.4251 10.018 23.8136 10.018 23.0459C10.018 22.4515 10.107 21.9403 10.2857 21.5141C10.6209 20.7194 11.2271 20.3225 12.1037 20.3225ZM6.5777 13.1C7.31795 13.1 7.91645 13.7237 7.9241 14.4964C7.9322 13.7237 8.5307 13.1 9.2705 13.1C10.0148 13.1 10.6241 13.739 10.6241 14.5171C10.6241 14.9202 10.4738 15.2951 10.2209 15.5584L7.9241 17.96L6.3797 16.344L6.4643 16.4327L5.62775 15.5584C5.37485 15.2947 5.22455 14.9202 5.22455 14.5171C5.2241 13.739 5.8334 13.1 6.5777 13.1ZM5.50085 21.6014C5.855 20.7338 6.5048 20.3 7.44665 20.3C8.12795 20.3 8.60225 20.43 8.8709 20.7338C9.1382 21.0371 9.27275 21.2 9.27275 21.65H8.5145C8.46905 21.65 8.3966 21.3021 8.2976 21.1851C8.11355 20.966 7.8341 20.867 7.45925 20.867C7.0304 20.867 6.6902 21.042 6.4373 21.3822C6.1844 21.7224 6.04445 22.2121 6.01565 22.8457C6.1916 22.6238 6.41255 22.4595 6.67985 22.3497C6.9242 22.2516 7.1969 22.2039 7.49705 22.2039C8.0078 22.2039 8.45375 22.3439 8.834 22.6247C9.21425 22.9046 9.4046 23.3226 9.4046 23.8788C9.4046 24.354 9.2246 24.7752 8.8646 25.142C8.5037 25.5087 7.99025 25.6924 7.32335 25.6924C6.7523 25.6924 6.26 25.5065 5.84555 25.1352C5.4311 24.7631 5.2241 24.1376 5.2241 23.2579C5.2241 22.6072 5.3168 22.055 5.50085 21.6014ZM8.8241 32.45C8.5757 32.45 8.3741 32.2484 8.3741 32C8.3741 31.7516 8.5757 31.55 8.8241 31.55C9.0725 31.55 9.2741 31.7516 9.2741 32C9.2741 32.2484 9.0725 32.45 8.8241 32.45ZM10.6241 32.45C10.3757 32.45 10.1741 32.2484 10.1741 32C10.1741 31.7516 10.3757 31.55 10.6241 31.55C10.8725 31.55 11.0741 31.7516 11.0741 32C11.0741 32.2484 10.8725 32.45 10.6241 32.45ZM12.4241 32.45C12.1757 32.45 11.9741 32.2484 11.9741 32C11.9741 31.7516 12.1757 31.55 12.4241 31.55C12.6725 31.55 12.8741 31.7516 12.8741 32C12.8741 32.2484 12.6725 32.45 12.4241 32.45ZM14.2241 32.45C13.9757 32.45 13.7741 32.2484 13.7741 32C13.7741 31.7516 13.9757 31.55 14.2241 31.55C14.4725 31.55 14.6741 31.7516 14.6741 32C14.6741 32.2484 14.4725 32.45 14.2241 32.45ZM16.0241 32.45C15.7757 32.45 15.5741 32.2484 15.5741 32C15.5741 31.7516 15.7757 31.55 16.0241 31.55C16.2725 31.55 16.4741 31.7516 16.4741 32C16.4741 32.2484 16.2725 32.45 16.0241 32.45ZM17.8241 32.45C17.5757 32.45 17.3741 32.2484 17.3741 32C17.3741 31.7516 17.5757 31.55 17.8241 31.55C18.0725 31.55 18.2741 31.7516 18.2741 32C18.2741 32.2484 18.0725 32.45 17.8241 32.45ZM21.2 28.85H5V27.95H21.2V28.85Z" fill="#231F20"/>
</svg>
