<svg width="19" height="44" viewBox="0 0 19 44" fill="none" xmlns="http://www.w3.org/2000/svg">
<path d="M17.8491 27C16.8564 27 16.0491 26.1927 16.0491 25.2C16.0491 24.2073 16.8564 23.4 17.8491 23.4C18.3459 23.4 18.7491 22.9973 18.7491 22.5005L18.75 15.3C18.75 15.2928 18.7482 15.2865 18.7477 15.2793C18.7405 13.1081 17.5921 11.3765 15.6 10.2857V4.95H15.5991C15.5991 2.25 13.0841 0.453602 9.7491 0.453602C6.41415 0.453602 3.8991 2.25 3.8991 4.95H3.9V10.2848C1.9002 11.3792 0.749099 13.1184 0.749099 15.3H0.75L0.749099 22.4996C0.749099 22.7381 0.8436 22.9676 1.01235 23.1363C1.1811 23.3051 1.41015 23.4 1.6491 23.4C2.6418 23.4 3.4491 24.2073 3.4491 25.2C3.4491 26.1927 2.6418 27 1.6491 27C1.41015 27 1.1811 27.095 1.01235 27.2637C0.8436 27.4325 0.748649 27.662 0.749099 27.9005L0.75 40.5C0.75 41.9891 1.96095 43.2 3.4491 43.2H16.0491C17.5386 43.2 18.75 41.9891 18.75 40.5L18.7491 27.8996C18.7491 27.4028 18.3459 27 17.8491 27ZM4.7991 4.95C4.7991 2.7 6.92715 1.3536 9.7491 1.3536C12.571 1.3536 14.6991 2.7 14.6991 4.95H14.7V9.86535C14.277 9.69345 13.8288 9.5427 13.35 9.4212V6.3H11.1V4.5H11.0991C11.0991 3.75435 10.4948 3.15 9.7491 3.15C9.00345 3.15 8.3991 3.75435 8.3991 4.5C8.3991 4.50315 8.4 4.50585 8.4 4.509V6.3H6.15V9.42075C5.6712 9.5427 5.223 9.693 4.8 9.8649V4.95H4.7991ZM9.7491 10.8C13.066 10.8 16.5918 11.8782 16.9171 14.85H2.58105C2.9064 11.8782 6.43215 10.8 9.7491 10.8ZM16.0491 41.4H3.4491C2.9532 41.4 2.55 40.9964 2.55 40.5V28.6862C3.9 28.2852 5.24955 26.8745 5.24955 25.2C5.24955 23.5256 3.9 22.1148 2.55 21.7139V15.75H16.95V21.7139C15.6 22.1144 14.2495 23.5256 14.2495 25.2C14.2495 26.8745 15.6 28.2857 16.95 28.6862V40.5C16.95 40.9964 16.5459 41.4 16.0491 41.4Z" fill="#231F20"/>
<path d="M12.9 23.4H6.6V24.3H12.9V23.4Z" fill="#231F20"/>
<path d="M12.9 26.1H6.6V27H12.9V26.1Z" fill="#231F20"/>
</svg>
