<svg width="144" height="24" viewBox="0 0 144 24" fill="none" xmlns="http://www.w3.org/2000/svg">
<path d="M38.0781 5.625L41 13.875L43.9062 5.625H46.9844V17H44.6328V13.8906L44.8672 8.52344L41.7969 17H40.1875L37.125 8.53125L37.3594 13.8906V17H35.0156V5.625H38.0781ZM48.5312 12.6953C48.5312 11.8568 48.6927 11.1094 49.0156 10.4531C49.3385 9.79688 49.8021 9.28906 50.4062 8.92969C51.0156 8.57031 51.7214 8.39062 52.5234 8.39062C53.6641 8.39062 54.5938 8.73958 55.3125 9.4375C56.0365 10.1354 56.4401 11.0833 56.5234 12.2812L56.5391 12.8594C56.5391 14.1562 56.1771 15.1979 55.4531 15.9844C54.7292 16.7656 53.7578 17.1562 52.5391 17.1562C51.3203 17.1562 50.3464 16.7656 49.6172 15.9844C48.8932 15.2031 48.5312 14.1406 48.5312 12.7969V12.6953ZM50.7891 12.8594C50.7891 13.6615 50.9401 14.276 51.2422 14.7031C51.5443 15.125 51.9766 15.3359 52.5391 15.3359C53.0859 15.3359 53.513 15.1276 53.8203 14.7109C54.1276 14.2891 54.2812 13.6172 54.2812 12.6953C54.2812 11.9089 54.1276 11.2995 53.8203 10.8672C53.513 10.4349 53.0807 10.2188 52.5234 10.2188C51.9714 10.2188 51.5443 10.4349 51.2422 10.8672C50.9401 11.2943 50.7891 11.9583 50.7891 12.8594ZM57.5781 12.7109C57.5781 11.3932 57.8724 10.3438 58.4609 9.5625C59.0547 8.78125 59.8646 8.39062 60.8906 8.39062C61.7135 8.39062 62.3932 8.69792 62.9297 9.3125V5H65.1953V17H63.1562L63.0469 16.1016C62.4844 16.8047 61.7604 17.1562 60.875 17.1562C59.8802 17.1562 59.0807 16.7656 58.4766 15.9844C57.8776 15.1979 57.5781 14.1068 57.5781 12.7109ZM59.8359 12.875C59.8359 13.6667 59.974 14.2734 60.25 14.6953C60.526 15.1172 60.9271 15.3281 61.4531 15.3281C62.151 15.3281 62.6432 15.0339 62.9297 14.4453V11.1094C62.6484 10.5208 62.1615 10.2266 61.4688 10.2266C60.3802 10.2266 59.8359 11.1094 59.8359 12.875ZM71.5234 14.6641C71.5234 14.388 71.3854 14.1719 71.1094 14.0156C70.8385 13.8542 70.401 13.7109 69.7969 13.5859C67.7865 13.1641 66.7812 12.3099 66.7812 11.0234C66.7812 10.2734 67.0911 9.64844 67.7109 9.14844C68.3359 8.64323 69.151 8.39062 70.1562 8.39062C71.2292 8.39062 72.0859 8.64323 72.7266 9.14844C73.3724 9.65365 73.6953 10.3099 73.6953 11.1172H71.4375C71.4375 10.7943 71.3333 10.5286 71.125 10.3203C70.9167 10.1068 70.5911 10 70.1484 10C69.7682 10 69.474 10.0859 69.2656 10.2578C69.0573 10.4297 68.9531 10.6484 68.9531 10.9141C68.9531 11.1641 69.0703 11.3672 69.3047 11.5234C69.5443 11.6745 69.9453 11.8073 70.5078 11.9219C71.0703 12.0312 71.5443 12.1562 71.9297 12.2969C73.1224 12.7344 73.7188 13.4922 73.7188 14.5703C73.7188 15.3411 73.388 15.9661 72.7266 16.4453C72.0651 16.9193 71.2109 17.1562 70.1641 17.1562C69.4557 17.1562 68.8255 17.0312 68.2734 16.7812C67.7266 16.526 67.2969 16.1797 66.9844 15.7422C66.6719 15.2995 66.5156 14.8229 66.5156 14.3125H68.6562C68.6771 14.7135 68.8255 15.0208 69.1016 15.2344C69.3776 15.4479 69.7474 15.5547 70.2109 15.5547C70.6432 15.5547 70.9688 15.474 71.1875 15.3125C71.4115 15.1458 71.5234 14.9297 71.5234 14.6641ZM79.0703 17.1562C77.8307 17.1562 76.8203 16.776 76.0391 16.0156C75.263 15.2552 74.875 14.2422 74.875 12.9766V12.7578C74.875 11.9089 75.0391 11.151 75.3672 10.4844C75.6953 9.8125 76.1589 9.29688 76.7578 8.9375C77.362 8.57292 78.0495 8.39062 78.8203 8.39062C79.9766 8.39062 80.8854 8.75521 81.5469 9.48438C82.2135 10.2135 82.5469 11.2474 82.5469 12.5859V13.5078H77.1641C77.237 14.0599 77.4557 14.5026 77.8203 14.8359C78.1901 15.1693 78.6562 15.3359 79.2188 15.3359C80.0885 15.3359 80.7682 15.0208 81.2578 14.3906L82.3672 15.6328C82.0286 16.112 81.5703 16.487 80.9922 16.7578C80.4141 17.0234 79.7734 17.1562 79.0703 17.1562ZM78.8125 10.2188C78.3646 10.2188 78 10.3698 77.7188 10.6719C77.4427 10.974 77.2656 11.4062 77.1875 11.9688H80.3281V11.7891C80.3177 11.2891 80.1823 10.9036 79.9219 10.6328C79.6615 10.3568 79.2917 10.2188 78.8125 10.2188ZM85.9141 8.54688L85.9844 9.52344C86.5885 8.76823 87.3984 8.39062 88.4141 8.39062C89.3099 8.39062 89.9766 8.65365 90.4141 9.17969C90.8516 9.70573 91.0755 10.4922 91.0859 11.5391V17H88.8281V11.5938C88.8281 11.1146 88.724 10.7682 88.5156 10.5547C88.3073 10.3359 87.9609 10.2266 87.4766 10.2266C86.8411 10.2266 86.3646 10.4974 86.0469 11.0391V17H83.7891V8.54688H85.9141ZM106.195 17H103.852V12.125H99.2812V17H96.9375V5.625H99.2812V10.2344H103.852V5.625H106.195V17ZM111.992 17.1562C110.753 17.1562 109.742 16.776 108.961 16.0156C108.185 15.2552 107.797 14.2422 107.797 12.9766V12.7578C107.797 11.9089 107.961 11.151 108.289 10.4844C108.617 9.8125 109.081 9.29688 109.68 8.9375C110.284 8.57292 110.971 8.39062 111.742 8.39062C112.898 8.39062 113.807 8.75521 114.469 9.48438C115.135 10.2135 115.469 11.2474 115.469 12.5859V13.5078H110.086C110.159 14.0599 110.378 14.5026 110.742 14.8359C111.112 15.1693 111.578 15.3359 112.141 15.3359C113.01 15.3359 113.69 15.0208 114.18 14.3906L115.289 15.6328C114.951 16.112 114.492 16.487 113.914 16.7578C113.336 17.0234 112.695 17.1562 111.992 17.1562ZM111.734 10.2188C111.286 10.2188 110.922 10.3698 110.641 10.6719C110.365 10.974 110.188 11.4062 110.109 11.9688H113.25V11.7891C113.24 11.2891 113.104 10.9036 112.844 10.6328C112.583 10.3568 112.214 10.2188 111.734 10.2188ZM121.656 17C121.552 16.7969 121.477 16.5443 121.43 16.2422C120.883 16.8516 120.172 17.1562 119.297 17.1562C118.469 17.1562 117.781 16.9167 117.234 16.4375C116.693 15.9583 116.422 15.3542 116.422 14.625C116.422 13.7292 116.753 13.0417 117.414 12.5625C118.081 12.0833 119.042 11.8411 120.297 11.8359H121.336V11.3516C121.336 10.9609 121.234 10.6484 121.031 10.4141C120.833 10.1797 120.518 10.0625 120.086 10.0625C119.706 10.0625 119.406 10.1536 119.188 10.3359C118.974 10.5182 118.867 10.7682 118.867 11.0859H116.609C116.609 10.5964 116.76 10.1432 117.062 9.72656C117.365 9.3099 117.792 8.98438 118.344 8.75C118.896 8.51042 119.516 8.39062 120.203 8.39062C121.245 8.39062 122.07 8.65365 122.68 9.17969C123.294 9.70052 123.602 10.4349 123.602 11.3828V15.0469C123.607 15.849 123.719 16.4557 123.938 16.8672V17H121.656ZM119.789 15.4297C120.122 15.4297 120.43 15.3568 120.711 15.2109C120.992 15.0599 121.201 14.8594 121.336 14.6094V13.1562H120.492C119.362 13.1562 118.76 13.5469 118.688 14.3281L118.68 14.4609C118.68 14.7422 118.779 14.974 118.977 15.1562C119.174 15.3385 119.445 15.4297 119.789 15.4297ZM127.719 17H125.453V5H127.719V17ZM132.289 6.46875V8.54688H133.734V10.2031H132.289V14.4219C132.289 14.7344 132.349 14.9583 132.469 15.0938C132.589 15.2292 132.818 15.2969 133.156 15.2969C133.406 15.2969 133.628 15.2786 133.82 15.2422V16.9531C133.378 17.0885 132.922 17.1562 132.453 17.1562C130.87 17.1562 130.062 16.3568 130.031 14.7578V10.2031H128.797V8.54688H130.031V6.46875H132.289ZM137.195 9.46875C137.794 8.75 138.547 8.39062 139.453 8.39062C141.286 8.39062 142.216 9.45573 142.242 11.5859V17H139.984V11.6484C139.984 11.1641 139.88 10.8073 139.672 10.5781C139.464 10.3438 139.117 10.2266 138.633 10.2266C137.971 10.2266 137.492 10.4818 137.195 10.9922V17H134.938V5H137.195V9.46875Z" fill="black"/>
<path fill-rule="evenodd" clip-rule="evenodd" d="M9 4.75C8.53827 4.75 8.13403 4.99996 7.91677 5.37554C7.70936 5.73409 7.25057 5.85661 6.89202 5.6492C6.53347 5.4418 6.41095 4.983 6.61836 4.62446C7.09272 3.80444 7.98117 3.25 9 3.25C10.5188 3.25 11.75 4.48122 11.75 6C11.75 7.51878 10.5188 8.75 9 8.75H4C3.58579 8.75 3.25 8.41421 3.25 8C3.25 7.58579 3.58579 7.25 4 7.25H9C9.69036 7.25 10.25 6.69036 10.25 6C10.25 5.30964 9.69036 4.75 9 4.75Z" fill="#215EE9"/>
<path fill-rule="evenodd" clip-rule="evenodd" d="M14 19.25C13.5383 19.25 13.134 19 12.9168 18.6245C12.7094 18.2659 12.2506 18.1434 11.892 18.3508C11.5335 18.5582 11.411 19.017 11.6184 19.3755C12.0927 20.1956 12.9812 20.75 14 20.75C15.5188 20.75 16.75 19.5188 16.75 18C16.75 16.4812 15.5188 15.25 14 15.25H4C3.58579 15.25 3.25 15.5858 3.25 16C3.25 16.4142 3.58579 16.75 4 16.75H14C14.6904 16.75 15.25 17.3096 15.25 18C15.25 18.6904 14.6904 19.25 14 19.25Z" fill="#215EE9"/>
<path fill-rule="evenodd" clip-rule="evenodd" d="M17 6.75C16.0215 6.75 15.1871 7.37503 14.8778 8.24993C14.7398 8.64047 14.3113 8.84517 13.9208 8.70713C13.5302 8.56909 13.3255 8.1406 13.4636 7.75007C13.978 6.29459 15.3661 5.25 17 5.25C19.0711 5.25 20.75 6.92893 20.75 9C20.75 11.0711 19.0711 12.75 17 12.75H4C3.58579 12.75 3.25 12.4142 3.25 12C3.25 11.5858 3.58579 11.25 4 11.25H17C18.2426 11.25 19.25 10.2426 19.25 9C19.25 7.75736 18.2426 6.75 17 6.75Z" fill="#215EE9"/>
</svg>
